# xmcd CD database file
#
# Track frame offsets:
#	150
#	49786
#	72482
#	98850
#	129176
#	158176
#	180574
#	206320
#	249596
#	275284
#	317436
#
# Disc length: 4684 seconds
#
# Revision: 0
# Processed by: cddbd v1.5.2PL0 Copyright (c) Steve Scherf et al.
# Submitted via: CDex 1.99.1
#
DISCID=90124a0b
DTITLE=Oliver Nelson - The Complete Prestige Collection 2/4
DYEAR=2017
DGENRE=Jazz
TTITLE0=Screamin' The Blues
TTITLE1=March On, March On
TTITLE2=The Drive
TTITLE3=The Meetin'
TTITLE4=Three Seconds
TTITLE5=Alto-itis
TTITLE6=Blues At The Five Spot
TTITLE7=Blue For M.F. (Mort Fega)
TTITLE8=Anacruses
TTITLE9=Perdido
TTITLE10=In Passing
EXTD=YEAR: 2017
EXTT0=
EXTT1=
EXTT2=
EXTT3=
EXTT4=
EXTT5=
EXTT6=
EXTT7=
EXTT8=
EXTT9=
EXTT10=
PLAYORDER=
